<svg xmlns="http://www.w3.org/2000/svg" viewBox="0 0 1280 720" width="1280" height="720">
  <defs>
    <linearGradient id="bg" x1="0%" y1="0%" x2="100%" y2="100%">
      <stop offset="0%" stop-color="#050814"/>
      <stop offset="50%" stop-color="#0c1326"/>
      <stop offset="100%" stop-color="#02040a"/>
    </linearGradient>
    <linearGradient id="cardBg" x1="0%" y1="0%" x2="0%" y2="100%">
      <stop offset="0%" stop-color="rgba(15, 23, 42, 0.88)"/>
      <stop offset="100%" stop-color="rgba(10, 15, 30, 0.94)"/>
    </linearGradient>
    <linearGradient id="accentGrad" x1="0%" y1="0%" x2="100%" y2="100%">
      <stop offset="0%" stop-color="#22c55e"/>
      <stop offset="100%" stop-color="#a855f7"/>
    </linearGradient>
    <filter id="glow" x="-20%" y="-20%" width="140%" height="140%">
      <feGaussianBlur stdDeviation="12" result="blur"/>
      <feComposite in="SourceGraphic" in2="blur" operator="over"/>
    </filter>
  </defs>

  <!-- Background -->
  <rect width="1280" height="720" fill="url(#bg)"/>

  <!-- Subtle Cyber Grid -->
  <g stroke="rgba(255,255,255,0.03)" stroke-width="1">
    <line x1="160" y1="0" x2="160" y2="720"/>
    <line x1="320" y1="0" x2="320" y2="720"/>
    <line x1="480" y1="0" x2="480" y2="720"/>
    <line x1="640" y1="0" x2="640" y2="720"/>
    <line x1="800" y1="0" x2="800" y2="720"/>
    <line x1="960" y1="0" x2="960" y2="720"/>
    <line x1="1120" y1="0" x2="1120" y2="720"/>
    <line x1="0" y1="180" x2="1280" y2="180"/>
    <line x1="0" y1="360" x2="1280" y2="360"/>
    <line x1="0" y1="540" x2="1280" y2="540"/>
  </g>

  <!-- Ambient Light Orbs -->
  <circle cx="240" cy="180" r="220" fill="#22c55e" opacity="0.08" filter="url(#glow)"/>
  <circle cx="1060" cy="500" r="260" fill="#a855f7" opacity="0.08" filter="url(#glow)"/>

  <!-- Top App Navigation Bar -->
  <rect x="40" y="30" width="1200" height="60" rx="14" fill="rgba(15, 23, 42, 0.75)" stroke="rgba(255,255,255,0.08)" stroke-width="1"/>
  <circle cx="70" cy="60" r="6" fill="#ef4444"/>
  <circle cx="92" cy="60" r="6" fill="#f59e0b"/>
  <circle cx="114" cy="60" r="6" fill="#10b981"/>
  
  <text x="145" y="66" fill="#f8fafc" font-family="system-ui, -apple-system, sans-serif" font-size="15" font-weight="700" letter-spacing="1">SPOTIFY CLONE // AUDIO STREAMING WEB APPLICATION</text>
  <text x="1200" y="66" fill="#94a3b8" font-family="monospace" font-size="12" font-weight="600" text-anchor="end">ABHIJEET MAHAKUR</text>

  <!-- Content Body -->
  
  <rect x="40" y="110" width="700" height="570" rx="18" fill="url(#cardBg)" stroke="rgba(34, 197, 94, 0.35)" stroke-width="1.5" filter="url(#glow)"/>
  <text x="70" y="155" fill="#f8fafc" font-family="system-ui, sans-serif" font-size="22" font-weight="800">SYNTHWAVE MUSIC STREAMING</text>
  <text x="70" y="180" fill="#22c55e" font-family="system-ui, sans-serif" font-size="13">High-Fidelity Audio API · Dynamic Queue &amp; Waveforms</text>

  <!-- Album Art & Center Stage -->
  <g transform="translate(70, 210)">
    <rect width="220" height="220" rx="14" fill="#0d1527" stroke="rgba(34, 197, 94, 0.4)" stroke-width="2"/>
    <circle cx="110" cy="110" r="70" fill="rgba(34, 197, 94, 0.15)" stroke="#22c55e" stroke-width="3" filter="url(#glow)"/>
    <text x="110" y="120" fill="#22c55e" font-family="system-ui, sans-serif" font-size="44" text-anchor="middle">🎧</text>
    
    <g transform="translate(250, 20)">
      <text y="24" fill="#94a3b8" font-family="monospace" font-size="12" letter-spacing="2">NOW PLAYING</text>
      <text y="60" fill="#f8fafc" font-family="system-ui, sans-serif" font-size="28" font-weight="900">Neon Drift (Retro Edit)</text>
      <text y="90" fill="#22c55e" font-family="system-ui, sans-serif" font-size="16" font-weight="600">Synthwavers ft. Abhijeet</text>
      
      <!-- Progress Bar -->
      <line x1="0" y1="130" x2="380" y2="130" stroke="rgba(255,255,255,0.12)" stroke-width="6" stroke-linecap="round"/>
      <line x1="0" y1="130" x2="260" y2="130" stroke="#22c55e" stroke-width="6" stroke-linecap="round"/>
      <circle cx="260" cy="130" r="8" fill="#22c55e" filter="url(#glow)"/>
      <text x="0" y="155" fill="#94a3b8" font-family="monospace" font-size="12">03:45</text>
      <text x="380" y="155" fill="#94a3b8" font-family="monospace" font-size="12" text-anchor="end">04:12</text>

      <!-- Player Controls -->
      <g transform="translate(190, 180)">
        <text x="-90" y="10" fill="#94a3b8" font-size="18" text-anchor="middle">🔀</text>
        <text x="-45" y="10" fill="#f8fafc" font-size="20" text-anchor="middle">⏮</text>
        <circle cx="0" cy="5" r="22" fill="#22c55e" filter="url(#glow)"/>
        <text x="0" y="12" fill="#000" font-size="18" font-weight="900" text-anchor="middle">❚❚</text>
        <text x="45" y="10" fill="#f8fafc" font-size="20" text-anchor="middle">⏭</text>
        <text x="90" y="10" fill="#94a3b8" font-size="18" text-anchor="middle">🔁</text>
      </g>
    </g>
  </g>

  <!-- Glowing Soundwave -->
  <g transform="translate(70, 480)">
    <rect width="640" height="170" rx="14" fill="rgba(5, 10, 20, 0.8)" stroke="rgba(255,255,255,0.06)"/>
    <text x="24" y="32" fill="#22c55e" font-family="system-ui, sans-serif" font-size="13" font-weight="700">AUDIO WAVEFORM SPECTRUM (60 FPS)</text>
    
    <!-- 28 Waveform Bars -->
    <rect x="30" y="120" width="10" height="20" rx="5" fill="#22c55e" opacity="0.85"/><rect x="51" y="87.47617459611072" width="10" height="52.523825403889276" rx="5" fill="#a855f7" opacity="0.85"/><rect x="72" y="57.718975909521475" width="10" height="82.28102409047852" rx="5" fill="#22c55e" opacity="0.85"/><rect x="93" y="78.0582411314748" width="10" height="61.94175886852519" rx="5" fill="#a855f7" opacity="0.85"/><rect x="114" y="60.01918786313226" width="10" height="79.98081213686774" rx="5" fill="#22c55e" opacity="0.85"/><rect x="135" y="49.08161579284433" width="10" height="90.91838420715567" rx="5" fill="#a855f7" opacity="0.85"/><rect x="156" y="89.60415687519821" width="10" height="50.39584312480178" rx="5" fill="#22c55e" opacity="0.85"/><rect x="177" y="89.92553324298429" width="10" height="50.07446675701571" rx="5" fill="#a855f7" opacity="0.85"/><rect x="198" y="92.6268364542411" width="10" height="47.3731635457589" rx="5" fill="#22c55e" opacity="0.85"/><rect x="219" y="139.91341994826837" width="10" height="0.08658005173164085" rx="5" fill="#a855f7" opacity="0.85"/><rect x="240" y="139.05611228885675" width="10" height="0.9438877111432333" rx="5" fill="#22c55e" opacity="0.85"/><rect x="261" y="132.82209332502822" width="10" height="7.177906674971773" rx="5" fill="#a855f7" opacity="0.85"/><rect x="282" y="164.82740739761283" width="10" height="-24.827407397612824" rx="5" fill="#22c55e" opacity="0.85"/><rect x="303" y="144.7554595074069" width="10" height="-4.75545950740689" rx="5" fill="#a855f7" opacity="0.85"/><rect x="324" y="118.40699870425443" width="10" height="21.593001295745562" rx="5" fill="#22c55e" opacity="0.85"/><rect x="345" y="132.57369741895167" width="10" height="7.426302581048336" rx="5" fill="#a855f7" opacity="0.85"/><rect x="366" y="99.75528578172779" width="10" height="40.244714218272215" rx="5" fill="#22c55e" opacity="0.85"/><rect x="387" y="67.7648991987626" width="10" height="72.2351008012374" rx="5" fill="#a855f7" opacity="0.85"/><rect x="408" y="84.2849461267881" width="10" height="55.71505387321189" rx="5" fill="#22c55e" opacity="0.85"/><rect x="429" y="61.443614758583095" width="10" height="78.5563852414169" rx="5" fill="#a855f7" opacity="0.85"/><rect x="450" y="45.47887890194782" width="10" height="94.52112109805218" rx="5" fill="#22c55e" opacity="0.85"/><rect x="471" y="81.54304913602738" width="10" height="58.45695086397262" rx="5" fill="#a855f7" opacity="0.85"/><rect x="492" y="78.67872631987072" width="10" height="61.32127368012928" rx="5" fill="#22c55e" opacity="0.85"/><rect x="513" y="79.96995386548893" width="10" height="60.03004613451107" rx="5" fill="#a855f7" opacity="0.85"/><rect x="534" y="127.84470515503416" width="10" height="12.155294844965837" rx="5" fill="#22c55e" opacity="0.85"/><rect x="555" y="129.48094999002163" width="10" height="10.519050009978361" rx="5" fill="#a855f7" opacity="0.85"/><rect x="576" y="127.25219110885442" width="10" height="12.747808891145581" rx="5" fill="#22c55e" opacity="0.85"/><rect x="597" y="164.14213035299213" width="10" height="-24.14213035299212" rx="5" fill="#a855f7" opacity="0.85"/>
  </g>

  <!-- Right: Playlist Queue -->
  <rect x="765" y="110" width="475" height="570" rx="18" fill="url(#cardBg)" stroke="rgba(168, 85, 247, 0.35)" stroke-width="1.5" filter="url(#glow)"/>
  <text x="795" y="155" fill="#f8fafc" font-family="system-ui, sans-serif" font-size="20" font-weight="800">UP NEXT // QUEUE</text>
  
  <g transform="translate(795, 185)">
    
      <g transform="translate(0, 0)">
        <rect width="415" height="76" rx="12" fill="rgba(255,255,255,0.02)" stroke="rgba(255,255,255,0.06)"/>
        <rect x="15" y="14" width="48" height="48" rx="8" fill="rgba(255,255,255,0.05)" stroke="#22c55e" stroke-width="1.5"/>
        <text x="39" y="44" fill="#22c55e" font-size="20" text-anchor="middle">🎵</text>
        <text x="75" y="36" fill="#f8fafc" font-family="system-ui, sans-serif" font-size="15" font-weight="700">Cyberpunk Nights</text>
        <text x="75" y="56" fill="#94a3b8" font-family="system-ui, sans-serif" font-size="12">Arcade Pulse</text>
        <text x="395" y="44" fill="#94a3b8" font-family="monospace" font-size="13" text-anchor="end">3:24</text>
      </g>
    
      <g transform="translate(0, 90)">
        <rect width="415" height="76" rx="12" fill="rgba(255,255,255,0.02)" stroke="rgba(255,255,255,0.06)"/>
        <rect x="15" y="14" width="48" height="48" rx="8" fill="rgba(255,255,255,0.05)" stroke="#38bdf8" stroke-width="1.5"/>
        <text x="39" y="44" fill="#38bdf8" font-size="20" text-anchor="middle">🎵</text>
        <text x="75" y="36" fill="#f8fafc" font-family="system-ui, sans-serif" font-size="15" font-weight="700">Echoes of Tomorrow</text>
        <text x="75" y="56" fill="#94a3b8" font-family="system-ui, sans-serif" font-size="12">Solar Flare</text>
        <text x="395" y="44" fill="#94a3b8" font-family="monospace" font-size="13" text-anchor="end">4:08</text>
      </g>
    
      <g transform="translate(0, 180)">
        <rect width="415" height="76" rx="12" fill="rgba(255,255,255,0.02)" stroke="rgba(255,255,255,0.06)"/>
        <rect x="15" y="14" width="48" height="48" rx="8" fill="rgba(255,255,255,0.05)" stroke="#a855f7" stroke-width="1.5"/>
        <text x="39" y="44" fill="#a855f7" font-size="20" text-anchor="middle">🎵</text>
        <text x="75" y="36" fill="#f8fafc" font-family="system-ui, sans-serif" font-size="15" font-weight="700">Future Bass Odyssey</text>
        <text x="75" y="56" fill="#94a3b8" font-family="system-ui, sans-serif" font-size="12">Hyperion</text>
        <text x="395" y="44" fill="#94a3b8" font-family="monospace" font-size="13" text-anchor="end">2:56</text>
      </g>
    
      <g transform="translate(0, 270)">
        <rect width="415" height="76" rx="12" fill="rgba(255,255,255,0.02)" stroke="rgba(255,255,255,0.06)"/>
        <rect x="15" y="14" width="48" height="48" rx="8" fill="rgba(255,255,255,0.05)" stroke="#f59e0b" stroke-width="1.5"/>
        <text x="39" y="44" fill="#f59e0b" font-size="20" text-anchor="middle">🎵</text>
        <text x="75" y="36" fill="#f8fafc" font-family="system-ui, sans-serif" font-size="15" font-weight="700">Midnight City Highway</text>
        <text x="75" y="56" fill="#94a3b8" font-family="system-ui, sans-serif" font-size="12">Overdrive</text>
        <text x="395" y="44" fill="#94a3b8" font-family="monospace" font-size="13" text-anchor="end">3:50</text>
      </g>
    
      <g transform="translate(0, 360)">
        <rect width="415" height="76" rx="12" fill="rgba(255,255,255,0.02)" stroke="rgba(255,255,255,0.06)"/>
        <rect x="15" y="14" width="48" height="48" rx="8" fill="rgba(255,255,255,0.05)" stroke="#ec4899" stroke-width="1.5"/>
        <text x="39" y="44" fill="#ec4899" font-size="20" text-anchor="middle">🎵</text>
        <text x="75" y="36" fill="#f8fafc" font-family="system-ui, sans-serif" font-size="15" font-weight="700">Quantum Melodies</text>
        <text x="75" y="56" fill="#94a3b8" font-family="system-ui, sans-serif" font-size="12">Zero State</text>
        <text x="395" y="44" fill="#94a3b8" font-family="monospace" font-size="13" text-anchor="end">4:15</text>
      </g>
    
  </g>

</svg>