<svg xmlns="http://www.w3.org/2000/svg" viewBox="0 0 1280 720" width="1280" height="720">
  <defs>
    <linearGradient id="bg" x1="0%" y1="0%" x2="100%" y2="100%">
      <stop offset="0%" stop-color="#050814"/>
      <stop offset="50%" stop-color="#0c1326"/>
      <stop offset="100%" stop-color="#02040a"/>
    </linearGradient>
    <linearGradient id="cardBg" x1="0%" y1="0%" x2="0%" y2="100%">
      <stop offset="0%" stop-color="rgba(15, 23, 42, 0.88)"/>
      <stop offset="100%" stop-color="rgba(10, 15, 30, 0.94)"/>
    </linearGradient>
    <linearGradient id="accentGrad" x1="0%" y1="0%" x2="100%" y2="100%">
      <stop offset="0%" stop-color="#f59e0b"/>
      <stop offset="100%" stop-color="#38bdf8"/>
    </linearGradient>
    <filter id="glow" x="-20%" y="-20%" width="140%" height="140%">
      <feGaussianBlur stdDeviation="12" result="blur"/>
      <feComposite in="SourceGraphic" in2="blur" operator="over"/>
    </filter>
  </defs>

  <!-- Background -->
  <rect width="1280" height="720" fill="url(#bg)"/>

  <!-- Subtle Cyber Grid -->
  <g stroke="rgba(255,255,255,0.03)" stroke-width="1">
    <line x1="160" y1="0" x2="160" y2="720"/>
    <line x1="320" y1="0" x2="320" y2="720"/>
    <line x1="480" y1="0" x2="480" y2="720"/>
    <line x1="640" y1="0" x2="640" y2="720"/>
    <line x1="800" y1="0" x2="800" y2="720"/>
    <line x1="960" y1="0" x2="960" y2="720"/>
    <line x1="1120" y1="0" x2="1120" y2="720"/>
    <line x1="0" y1="180" x2="1280" y2="180"/>
    <line x1="0" y1="360" x2="1280" y2="360"/>
    <line x1="0" y1="540" x2="1280" y2="540"/>
  </g>

  <!-- Ambient Light Orbs -->
  <circle cx="240" cy="180" r="220" fill="#f59e0b" opacity="0.08" filter="url(#glow)"/>
  <circle cx="1060" cy="500" r="260" fill="#38bdf8" opacity="0.08" filter="url(#glow)"/>

  <!-- Top App Navigation Bar -->
  <rect x="40" y="30" width="1200" height="60" rx="14" fill="rgba(15, 23, 42, 0.75)" stroke="rgba(255,255,255,0.08)" stroke-width="1"/>
  <circle cx="70" cy="60" r="6" fill="#ef4444"/>
  <circle cx="92" cy="60" r="6" fill="#f59e0b"/>
  <circle cx="114" cy="60" r="6" fill="#10b981"/>
  
  <text x="145" y="66" fill="#f8fafc" font-family="system-ui, -apple-system, sans-serif" font-size="15" font-weight="700" letter-spacing="1">AMAZON CLONE // E-COMMERCE WEB STOREFRONT</text>
  <text x="1200" y="66" fill="#94a3b8" font-family="monospace" font-size="12" font-weight="600" text-anchor="end">ABHIJEET MAHAKUR</text>

  <!-- Content Body -->
  
  <rect x="40" y="110" width="1200" height="80" rx="14" fill="rgba(15, 23, 42, 0.9)" stroke="rgba(245, 158, 11, 0.4)" stroke-width="1.5" filter="url(#glow)"/>
  <text x="70" y="158" fill="#f59e0b" font-family="system-ui, sans-serif" font-size="28" font-weight="900" letter-spacing="-0.5">amazon<tspan fill="#38bdf8">.in</tspan></text>
  
  <rect x="230" y="130" width="600" height="42" rx="8" fill="rgba(255,255,255,0.06)" stroke="rgba(255,255,255,0.15)"/>
  <text x="250" y="156" fill="#94a3b8" font-family="system-ui, sans-serif" font-size="14">Search Amazon Clone for electronics, laptops, monitors...</text>
  <rect x="780" y="130" width="50" height="42" rx="8" fill="#f59e0b"/>
  <text x="805" y="157" fill="#000" font-family="system-ui, sans-serif" font-size="18" text-anchor="middle">🔍</text>

  <text x="940" y="148" fill="#94a3b8" font-family="system-ui, sans-serif" font-size="11">Hello, Sign in</text>
  <text x="940" y="165" fill="#f8fafc" font-family="system-ui, sans-serif" font-size="13" font-weight="700">Account &amp; Lists</text>
  <text x="1070" y="148" fill="#94a3b8" font-family="system-ui, sans-serif" font-size="11">Returns</text>
  <text x="1070" y="165" fill="#f8fafc" font-family="system-ui, sans-serif" font-size="13" font-weight="700">&amp; Orders</text>
  <rect x="1150" y="130" width="70" height="40" rx="8" fill="rgba(245, 158, 11, 0.15)" stroke="#f59e0b"/>
  <text x="1185" y="156" fill="#f59e0b" font-family="system-ui, sans-serif" font-size="14" font-weight="800" text-anchor="middle">🛒 3</text>

  <rect x="40" y="210" width="1200" height="110" rx="14" fill="linear-gradient(90deg, #1e293b, #0f172a)" stroke="rgba(255,255,255,0.08)"/>
  <text x="80" y="260" fill="#f8fafc" font-family="system-ui, sans-serif" font-size="28" font-weight="800">Great Indian Festival Deals &amp; Tech Essentials</text>
  <text x="80" y="292" fill="#f59e0b" font-family="system-ui, sans-serif" font-size="16" font-weight="600">Up to 60% off on Laptops, Mechanical Keyboards &amp; Gaming Monitors · Prime Free Delivery</text>

  <g transform="translate(40, 345)">
    <!-- Item 1 -->
    <rect width="280" height="335" rx="14" fill="url(#cardBg)" stroke="rgba(255,255,255,0.08)" stroke-width="1"/>
    <rect x="20" y="20" width="240" height="160" rx="10" fill="rgba(255,255,255,0.03)"/>
    <circle cx="140" cy="100" r="50" fill="rgba(56, 189, 248, 0.15)" stroke="#38bdf8" stroke-width="2"/>
    <text x="140" y="108" fill="#38bdf8" font-family="system-ui, sans-serif" font-size="36" text-anchor="middle">🎧</text>
    <text x="20" y="210" fill="#f8fafc" font-family="system-ui, sans-serif" font-size="15" font-weight="700">Wireless ANC Headphones</text>
    <text x="20" y="235" fill="#f59e0b" font-family="system-ui, sans-serif" font-size="13">★★★★★ (4.8)</text>
    <text x="20" y="265" fill="#f8fafc" font-family="system-ui, sans-serif" font-size="20" font-weight="800">₹4,999 <tspan fill="#94a3b8" font-size="13" text-decoration="line-through">₹8,999</tspan></text>
    <rect x="20" y="285" width="240" height="34" rx="8" fill="#f59e0b"/>
    <text x="140" y="307" fill="#000" font-family="system-ui, sans-serif" font-size="13" font-weight="800" text-anchor="middle">Add to Cart</text>

    <!-- Item 2 -->
    <g transform="translate(305, 0)">
      <rect width="280" height="335" rx="14" fill="url(#cardBg)" stroke="rgba(255,255,255,0.08)" stroke-width="1"/>
      <rect x="20" y="20" width="240" height="160" rx="10" fill="rgba(255,255,255,0.03)"/>
      <circle cx="140" cy="100" r="50" fill="rgba(16, 185, 129, 0.15)" stroke="#10b981" stroke-width="2"/>
      <text x="140" y="108" fill="#10b981" font-family="system-ui, sans-serif" font-size="36" text-anchor="middle">⌨️</text>
      <text x="20" y="210" fill="#f8fafc" font-family="system-ui, sans-serif" font-size="15" font-weight="700">RGB Mechanical Keyboard</text>
      <text x="20" y="235" fill="#f59e0b" font-family="system-ui, sans-serif" font-size="13">★★★★★ (4.9)</text>
      <text x="20" y="265" fill="#f8fafc" font-family="system-ui, sans-serif" font-size="20" font-weight="800">₹3,499 <tspan fill="#94a3b8" font-size="13" text-decoration="line-through">₹5,999</tspan></text>
      <rect x="20" y="285" width="240" height="34" rx="8" fill="#f59e0b"/>
      <text x="140" y="307" fill="#000" font-family="system-ui, sans-serif" font-size="13" font-weight="800" text-anchor="middle">Add to Cart</text>
    </g>

    <!-- Item 3 -->
    <g transform="translate(610, 0)">
      <rect width="280" height="335" rx="14" fill="url(#cardBg)" stroke="rgba(255,255,255,0.08)" stroke-width="1"/>
      <rect x="20" y="20" width="240" height="160" rx="10" fill="rgba(255,255,255,0.03)"/>
      <circle cx="140" cy="100" r="50" fill="rgba(168, 85, 247, 0.15)" stroke="#a855f7" stroke-width="2"/>
      <text x="140" y="108" fill="#a855f7" font-family="system-ui, sans-serif" font-size="36" text-anchor="middle">⌚</text>
      <text x="20" y="210" fill="#f8fafc" font-family="system-ui, sans-serif" font-size="15" font-weight="700">Fitness Smartwatch v2</text>
      <text x="20" y="235" fill="#f59e0b" font-family="system-ui, sans-serif" font-size="13">★★★★☆ (4.7)</text>
      <text x="20" y="265" fill="#f8fafc" font-family="system-ui, sans-serif" font-size="20" font-weight="800">₹2,899 <tspan fill="#94a3b8" font-size="13" text-decoration="line-through">₹4,999</tspan></text>
      <rect x="20" y="285" width="240" height="34" rx="8" fill="#f59e0b"/>
      <text x="140" y="307" fill="#000" font-family="system-ui, sans-serif" font-size="13" font-weight="800" text-anchor="middle">Add to Cart</text>
    </g>

    <!-- Item 4 -->
    <g transform="translate(915, 0)">
      <rect width="285" height="335" rx="14" fill="url(#cardBg)" stroke="rgba(255,255,255,0.08)" stroke-width="1"/>
      <rect x="20" y="20" width="245" height="160" rx="10" fill="rgba(255,255,255,0.03)"/>
      <circle cx="142" cy="100" r="50" fill="rgba(244, 63, 94, 0.15)" stroke="#f43f5e" stroke-width="2"/>
      <text x="142" y="108" fill="#f43f5e" font-family="system-ui, sans-serif" font-size="36" text-anchor="middle">🖥️</text>
      <text x="20" y="210" fill="#f8fafc" font-family="system-ui, sans-serif" font-size="15" font-weight="700">27" 165Hz Curved Monitor</text>
      <text x="20" y="235" fill="#f59e0b" font-family="system-ui, sans-serif" font-size="13">★★★★★ (4.9)</text>
      <text x="20" y="265" fill="#f8fafc" font-family="system-ui, sans-serif" font-size="20" font-weight="800">₹16,499 <tspan fill="#94a3b8" font-size="13" text-decoration="line-through">₹24,999</tspan></text>
      <rect x="20" y="285" width="245" height="34" rx="8" fill="#f59e0b"/>
      <text x="142" y="307" fill="#000" font-family="system-ui, sans-serif" font-size="13" font-weight="800" text-anchor="middle">Add to Cart</text>
    </g>
  </g>

</svg>